<svg xmlns="http://www.w3.org/2000/svg" viewBox="0 0 279.65 139.39"><defs><style>.cls-1{fill:#231f20;}</style></defs><g id="Layer_2" data-name="Layer 2"><g id="Layer_1-2" data-name="Layer 1"><path d="M108.51,0V32.33A30.55,30.55,0,0,0,139,62.66h1.67a30.54,30.54,0,0,0,30.5-30.5V0Zm25,2.48h23.65V31.64a17.36,17.36,0,0,1-24,16.06c-.24-.1-.49-.2-.77-.34a6.22,6.22,0,0,1-.73-.37,6,6,0,0,1-.72-.4l-.48-.29-.23-.16a4.6,4.6,0,0,1-.54-.36c-.25-.19-.5-.37-.76-.58s-.42-.33-.62-.52a16,16,0,0,1-2.23-2.37,12.27,12.27,0,0,1-1-1.49l-.33-.53h0a12.61,12.61,0,0,1-.76-1.46c-.11-.24-.21-.5-.31-.75s-.2-.52-.29-.78-.18-.52-.26-.81a4.41,4.41,0,0,1-.2-.8c-.07-.26-.14-.53-.19-.82s-.1-.55-.13-.82l-.13-1.33h8.66l.06.33a.55.55,0,0,0,0,.16c0,.12.06.25.08.33a1.73,1.73,0,0,0,.12.45c0,.09.06.18.1.33a6.79,6.79,0,0,0,.64,1.43,3.11,3.11,0,0,0,.36.58,3.6,3.6,0,0,0,.4.55,5.18,5.18,0,0,0,.44.51,5.05,5.05,0,0,0,.56.57A8.52,8.52,0,0,0,135.39,39a4.66,4.66,0,0,0,.62.33,8.53,8.53,0,0,0,3.82.88,8.77,8.77,0,0,0,8.75-8.76V7.67h-15Zm12.55,7.68V19H122.44V2.48h8.61v7.68Zm0,11.28v10a6.28,6.28,0,0,1-12.55,0v-10ZM111,2.48h9v19h11.1v8.79H111Zm57.66,29.68a28,28,0,0,1-28,28H139a28,28,0,0,1-28-27.45h9v0c0,.13,0,.27,0,.41l.06.52c0,.53.13,1,.21,1.56l.22,1a8.23,8.23,0,0,0,.25.92c.05.21.11.41.18.63L121,38a8.44,8.44,0,0,0,.38,1l.36.84a16.53,16.53,0,0,0,.86,1.69l.12.21c.12.2.24.4.36.58a6.42,6.42,0,0,0,.52.77,18.07,18.07,0,0,0,1.19,1.53c.2.23.38.44.58.65s.51.52.77.77.38.37.56.53A23.1,23.1,0,0,0,129,48.32l.89.54q.3.18.6.33c.5.26,1,.52,1.72.8A17.84,17.84,0,0,0,136,51.13c.29,0,.56.11.83.14a18.55,18.55,0,0,0,3,.23,19.88,19.88,0,0,0,19.85-19.86V2.48h9Z"/><path class="cls-1" d="M126.13,42.31a12.27,12.27,0,0,1-1-1.49A18,18,0,0,0,126.13,42.31Z"/><path d="M0,120.8v-1.4H3.45V93.5H0V92.1H10.52v1.4H7.08v25.9H13c6,0,6.51-2.36,6.51-7.22h1.4v8.62Z"/><path d="M34.23,109.29a2.3,2.3,0,1,1-2.3,2.29A2.3,2.3,0,0,1,34.23,109.29Z"/><path d="M62.31,92.1v1.4H58.49v20.8c-.77,2.68-2.35,7.65-6.7,7.65a4.4,4.4,0,0,1-4.64-4.12,2.25,2.25,0,0,1,2.19-2.49,2.13,2.13,0,0,1,2.14,2.25,2.1,2.1,0,0,1-.53,1.52,2.25,2.25,0,0,1-1.21.64,2.56,2.56,0,0,0,1.86.8c2.72,0,3.25-1.67,3.25-7v-20h-5V92.1Z"/><path d="M73.06,106.45c0-8.15,4.86-14.74,12.25-14.74s12.25,6.59,12.25,14.74-4.49,14.73-12.25,14.73S73.06,114.59,73.06,106.45Zm4.4,0c0,7,1.19,13.44,7.85,13.44s7.85-6.48,7.85-13.44S91.59,93,85.31,93,77.46,99.49,77.46,106.45Z"/><path d="M112.14,119.4V93.5h-3.45V92.1h10.9v1.4h-3.82v12.43h12.62V93.5h-3.82V92.1h10.91v1.4H132v25.9h3.45v1.4H124.57v-1.4h3.82V107.33H115.77V119.4h3.82v1.4h-10.9v-1.4Z"/><path d="M150.44,119.4V93.5h-4V92.1h8.87l13.5,22.69V93.5h-4.21V92.1h9.7v1.4h-4v27.68h-2L151.91,93.82V119.4h4.4v1.4h-9.89v-1.4Z"/><path d="M185.8,121.18v-7.85h1.4c.76,3.8,3.57,6.56,8.23,6.56,4,0,6.4-2,6.4-5.41,0-7.85-15-5.73-15-15.68,0-4.22,3.39-7.09,7.93-7.09A9,9,0,0,1,201,94.05l1.5-2.34h1.2v7.85h-1.4c-.76-4.27-3.59-6.34-7.19-6.34S189.6,95,189.6,97.65c0,7.08,15,5.16,15,15.5,0,5-3.4,8.22-8.8,8.22a10,10,0,0,1-7.32-2.79l-1.48,2.6Z"/><path d="M216.17,106.45c0-8.15,4.85-14.74,12.24-14.74s12.25,6.59,12.25,14.74-4.48,14.73-12.25,14.73S216.17,114.59,216.17,106.45Zm4.4,0c0,7,1.18,13.44,7.84,13.44s7.85-6.48,7.85-13.44S234.69,93,228.41,93,220.57,99.49,220.57,106.45Z"/><path d="M255.81,119.4V93.5h-4V92.1h8.87l13.5,22.69V93.5H270V92.1h9.69v1.4h-4v27.68h-2L257.29,93.82V119.4h4.4v1.4h-9.9v-1.4Z"/><path d="M118.14,138.73v.54h-4.32v-7.5h4.26v.53h-3.7v2.92h3.43v.53h-3.43v3Z"/><path d="M119.35,137.62l.49-.29a2.13,2.13,0,0,0,2.25,1.51c1.26,0,1.89-.64,1.89-1.5s-.79-1.24-1.94-1.61-2.38-.76-2.38-2.07a2.07,2.07,0,0,1,2.27-2,2.52,2.52,0,0,1,2.41,1.57l-.48.27a2,2,0,0,0-1.93-1.29,1.5,1.5,0,0,0-1.69,1.44c0,.9.76,1.18,1.83,1.53,1.33.44,2.49.86,2.49,2.16s-1,2.06-2.47,2.06A2.68,2.68,0,0,1,119.35,137.62Z"/><path d="M130.56,132.3H128.2v7h-.57v-7h-2.36v-.53h5.29Z"/><path d="M130.67,138.89a.48.48,0,0,1,.48-.48.49.49,0,1,1,0,1A.48.48,0,0,1,130.67,138.89Z"/><path d="M143.41,139.27h-.57V132.6l-2.78,4.61H140l-2.78-4.61v6.67h-.57v-7.5h.71L140,136.2l2.68-4.43h.72Z"/><path d="M152.33,139.27h-.57V132.6L149,137.21h-.09l-2.78-4.61v6.67h-.57v-7.5h.71l2.68,4.43,2.68-4.43h.72Z"/><path d="M158.77,139.27l-2.16-3.34-2.17,3.34h-.66l2.5-3.86-2.36-3.64h.65l2,3.14,2-3.14h.66l-2.36,3.64,2.5,3.86Z"/><path d="M165.18,139.27,163,135.93l-2.17,3.34h-.66l2.5-3.86-2.36-3.64H161l2,3.14,2-3.14h.66l-2.36,3.64,2.5,3.86Z"/></g></g></svg>